
Complete name                            : The League Of Extraordinary Gentlemen 2003  720p BRRip  Dual Audio [Hindi-English] bittoo 1986.mkv
Format                                   : Matroska
Format version                           : Version 2
File size                                : 899 MiB
Duration                                 : 1h 50mn
Overall bit rate mode                    : Variable
Overall bit rate                         : 1 142 Kbps
Movie name                               : The League Of Extraordinary Gentlemen 2003!! bittoo 1986!!
Encoded date                             : UTC 2013-01-09 15:07:02

Video
ID                                       : 1
Format                                   : AVC
Format/Info                              : Advanced Video Codec
Format profile                           : High@L4.1
Format settings, CABAC                   : Yes
Format settings, ReFrames                : 3 frames
Muxing mode                              : Header stripping
Codec ID                                 : V_MPEG4/ISO/AVC
Duration                                 : 1h 50mn
Bit rate mode                            : Variable
Bit rate                                 : 821 Kbps
Maximum bit rate                         : 40.0 Mbps
Width                                    : 1 280 pixels
Height                                   : 544 pixels
Display aspect ratio                     : 2.35:1
Original display aspect ratio            : 2.35:1
Frame rate mode                          : Constant
Frame rate                               : 23.976 fps
Color space                              : YUV
Chroma subsampling                       : 4:2:0
Bit depth                                : 8 bits
Scan type                                : Progressive
Bits/(Pixel*Frame)                       : 0.049
Stream size                              : 629 MiB (70%)
Title                                    : The League Of Extraordinary Gentlemen 2003!! bittoo 1986!!
Language                                 : English
Default                                  : Yes


Audio #1
ID                                       : 2
Format                                   : AC-3
Format/Info                              : Audio Coding 3
Mode extension                           : CM (complete main)
Format settings, Endianness              : Big
Muxing mode                              : Header stripping
Codec ID                                 : A_AC3
Duration                                 : 1h 50mn
Bit rate mode                            : Constant
Bit rate                                 : 64.0 Kbps
Channel(s)                               : 2 channels
Channel positions                        : Front: L R
Sampling rate                            : 44.1 KHz
Bit depth                                : 16 bits
Compression mode                         : Lossy
Stream size                              : 50.4 MiB (6%)
Title                                    : bittoo 1986
Language                                 : English

Audio #2
ID                                       : 4
Format                                   : AC-3
Format/Info                              : Audio Coding 3
Mode extension                           : CM (complete main)
Format settings, Endianness              : Big
Muxing mode                              : Header stripping
Codec ID                                 : A_AC3
Duration                                 : 1h 50mn
Bit rate mode                            : Constant
Bit rate                                 : 256 Kbps
Channel(s)                               : 2 channels
Channel positions                        : Front: L R
Sampling rate                            : 44.1 KHz
Bit depth                                : 16 bits
Compression mode                         : Lossy
Delay relative to video                  : 1s 753ms
Stream size                              : 202 MiB (22%)
Title                                    : bittoo 1986
Language                                 : Hindi
Default                                  : Yes

Text
ID                                       : 3
Format                                   : UTF-8
Codec ID                                 : S_TEXT/UTF8
Codec ID/Info                            : UTF-8 Plain Text
Title                                    : bittoo 1986
Language                                 : English
Default                                  : Yes
Forced                                   : Yes
